<?xml version="1.0" standalone="no"?><!DOCTYPE svg PUBLIC "-//W3C//DTD SVG 1.1//EN" "http://www.w3.org/Graphics/SVG/1.1/DTD/svg11.dtd"><svg t="1544169458498" class="icon" style="" viewBox="0 0 1024 1024" version="1.1" xmlns="http://www.w3.org/2000/svg" p-id="7352" xmlns:xlink="http://www.w3.org/1999/xlink" width="200" height="200"><defs><style type="text/css"></style></defs><path d="M640 288v-192c0-19.2 12.8-32 32-32s32 12.8 32 32v160h160c19.2 0 32 12.8 32 32s-12.8 32-32 32h-192c-6.4 0-12.8 0-19.2-6.4h-6.4c0-12.8-6.4-19.2-6.4-25.6z m-352-224c-19.2 0-32 12.8-32 32v160h-160c-19.2 0-32 12.8-32 32s12.8 32 32 32h192c6.4 0 12.8 0 19.2-6.4h6.4c6.4-6.4 6.4-12.8 6.4-19.2v-192c0-25.6-12.8-38.4-32-38.4z m576 576h-192c-6.4 0-12.8 0-19.2 6.4h-6.4c-6.4 6.4-6.4 12.8-6.4 19.2v192c0 19.2 12.8 32 32 32s32-12.8 32-32V704h160c19.2 0 32-12.8 32-32s-12.8-32-32-32z m-550.4 12.8c-6.4-6.4-6.4-6.4 0 0-12.8-6.4-19.2-12.8-25.6-12.8h-192c-19.2 0-32 12.8-32 32s12.8 32 32 32h160v160c0 19.2 12.8 32 32 32s32-12.8 32-32v-192c0-6.4-6.4-12.8-6.4-19.2z m166.4-300.8c-70.4 0-128 57.6-128 128s57.6 128 128 128 128-57.6 128-128-57.6-128-128-128z" p-id="7353"></path></svg>